<?xml version="1.0" standalone="no"?><!DOCTYPE svg PUBLIC "-//W3C//DTD SVG 1.1//EN" "http://www.w3.org/Graphics/SVG/1.1/DTD/svg11.dtd"><svg t="1756256718240" class="icon" viewBox="0 0 1024 1024" version="1.1" xmlns="http://www.w3.org/2000/svg" p-id="3524" xmlns:xlink="http://www.w3.org/1999/xlink" width="200" height="200"><path d="M922.688 64H101.312A37.312 37.312 0 0 0 64 101.312V776.32c0 20.608 16.704 37.312 37.312 37.312h821.376A37.312 37.312 0 0 0 960 776.32V101.312A37.312 37.312 0 0 0 922.688 64z m-37.376 675.008H138.688v-600.32h746.624v600.32z m-123.264 146.304a37.312 37.312 0 0 1 0 74.688H261.952a37.312 37.312 0 1 1 0-74.688h500.096z m-518.4-288v-1.024a52.672 52.672 0 0 1 0-105.216 47.808 47.808 0 0 1 13.44 2.176L376.32 366.912a49.728 49.728 0 1 1 95.552 0l117.12 123.968a42.688 42.688 0 0 1 31.36 0l113.536-119.872a52.672 52.672 0 1 1 46.528 34.368 48.64 48.64 0 0 1-9.6 0l-117.76 125.44c0.896 3.84 1.408 7.68 1.472 11.712a49.92 49.92 0 1 1-99.648 0c0.128-3.968 0.512-7.872 1.28-11.776l-118.592-125.44a42.688 42.688 0 0 1-26.88 0L291.2 530.56a52.032 52.032 0 0 1-47.552 66.752z" fill="currentColor" p-id="3525"></path></svg>