<svg xmlns="http://www.w3.org/2000/svg" xmlns:xlink="http://www.w3.org/1999/xlink" width="103.240478515625" height="101.24099731445312" viewBox="0 0 103.240478515625 101.24099731445312" fill="none">
<g opacity="0.7">
<g filter="url(#filter_fouGCLcJhUrhxLzE7d_Ua)">
<ellipse cx="50.8262939453125" cy="33.72278076171875" transform="rotate(45 43.3262939453125 10.53778076171875)" rx="7.5" ry="23.185"  style="mix-blend-mode:normal" fill="#4871C6" >
</ellipse>
</g>
</g>
<g opacity="0.7">
<g filter="url(#filter_LGxmRhZpoj6TAVFhXEmOV)">
<ellipse cx="94.0313720703125" cy="80.97918701171875" transform="rotate(45 88.1563720703125 68.47918701171875)" rx="5.875" ry="12.5"  style="mix-blend-mode:normal" fill="#0D3E83" >
</ellipse>
</g>
</g>
<circle  cx="52.53717041015625" cy="60.53778076171875" r="36"   style="mix-blend-mode:normal" fill="#41597F" fill-opacity="0.18">
</circle>
<path fill-rule="evenodd"  fill="url(#linear_border_msGd8wFmMVpAvDOF0HBpn_0)" style="mix-blend-mode:normal" d="M52.5372 96.5378C72.4194 96.5378 88.5372 80.42 88.5372 60.5378C88.5372 40.6555 72.4194 24.5378 52.5372 24.5378C32.6549 24.5378 16.5372 40.6555 16.5372 60.5378C16.5372 80.42 32.6549 96.5378 52.5372 96.5378ZM52.5372 25.5378C71.8671 25.5378 87.5372 41.2078 87.5372 60.5378C87.5372 79.8677 71.8671 95.5378 52.5372 95.5378C33.2072 95.5378 17.5372 79.8677 17.5372 60.5378C17.5372 41.2078 33.2072 25.5378 52.5372 25.5378Z">
</path>
<path fill-rule="evenodd"  fill="url(#linear_border_msGd8wFmMVpAvDOF0HBpn_1)" style="mix-blend-mode:normal" d="M52.5372 96.5378C72.4194 96.5378 88.5372 80.42 88.5372 60.5378C88.5372 40.6555 72.4194 24.5378 52.5372 24.5378C32.6549 24.5378 16.5372 40.6555 16.5372 60.5378C16.5372 80.42 32.6549 96.5378 52.5372 96.5378ZM52.5372 25.5378C71.8671 25.5378 87.5372 41.2078 87.5372 60.5378C87.5372 79.8677 71.8671 95.5378 52.5372 95.5378C33.2072 95.5378 17.5372 79.8677 17.5372 60.5378C17.5372 41.2078 33.2072 25.5378 52.5372 25.5378Z">
</path>
<g mask="url(#mask-adz44OpSkbvq-5bnkC0Ph)" opacity="0.48">
<g filter="url(#filter_mNlfUZGJnUclczhe7e_C0)">
<circle cx="48.53717041015625" cy="56.53778076171875" r="30"  style="mix-blend-mode:normal" fill="#1B3252" >
</circle>
</g>
</g>
<g mask="url(#mask-adz44OpSkbvq-5bnkC0Ph)" opacity="0.3">
<g filter="url(#filter_1KeKeYdKQxVTAnYhNC4WN)">
<ellipse cx="97.101376953125" cy="81.73101684570312" transform="rotate(44.38477474590305 85.411376953125 57.761016845703125)" rx="11.69" ry="23.97"  style="mix-blend-mode:normal" fill="#497DB1" >
</ellipse>
</g>
</g>
<g mask="url(#mask-adz44OpSkbvq-5bnkC0Ph)" opacity="0.7">
<g filter="url(#filter_V1tV1MKx-9Cr3WR2BMZOw)">
<ellipse cx="88.7295361328125" cy="83.03778076171875" transform="rotate(44.38477474590305 83.0245361328125 70.53778076171875)" rx="5.705" ry="12.5"  style="mix-blend-mode:normal" fill="#0A3764" >
</ellipse>
</g>
</g>
<g mask="url(#mask-adz44OpSkbvq-5bnkC0Ph)">
<g filter="url(#filter_vvaQ9Fz2yHdGZ_WZlrp3M)">
<ellipse cx="88.8345361328125" cy="86.03778076171875" transform="rotate(44.38477474590305 86.0245361328125 73.53778076171875)" rx="2.81" ry="12.5"  style="mix-blend-mode:normal" fill="#509BD8" >
</ellipse>
</g>
</g>
<g opacity="0.6">
<g filter="url(#filter_bIqqAlVW1p_0gACcIhLhG)">
<path d="M16.5372 60.5378C16.5372 40.6555 32.6549 24.5378 52.5372 24.5378C54.0372 39.0378 48.9372 66.5378 16.5372 60.5378Z"  style="mix-blend-mode:normal" fill="url(#linear_fill_bIqqAlVW1p_0gACcIhLhG)" >
</path>
</g>
</g>
<g opacity="0.6">
<g filter="url(#filter_Gp8_bCqsCxkds49jB24Tm)">
<path d="M20.5372 46.1119C24.1605 39.6117 29.1265 33.962 35.0602 29.5378C37.7627 36.2765 38.6415 49.0254 20.5372 46.1119Z"  style="mix-blend-mode:normal" fill="url(#linear_fill_Gp8_bCqsCxkds49jB24Tm)" fill-opacity="0.9599999785423279">
</path>
</g>
</g>
<g filter="url(#filter_vKGa459oSf9wqCCYIYZKi)">
<path d="M21.5372 43.9153C24.024 39.4531 27.4324 35.5748 31.505 32.5378C32.0372 38.0378 28.5372 43.9153 21.5372 43.9153Z"  style="mix-blend-mode:normal" fill="url(#linear_fill_vKGa459oSf9wqCCYIYZKi)" >
</path>
</g>
<path fill-rule="evenodd"  fill="url(#linear_border_MTb_XBGzvVunzVMRMT9Ip_0)" style="mix-blend-mode:normal" d="M52.5372 96.5378C72.4194 96.5378 88.5372 80.42 88.5372 60.5378C88.5372 40.6555 72.4194 24.5378 52.5372 24.5378C32.6549 24.5378 16.5372 40.6555 16.5372 60.5378C16.5372 80.42 32.6549 96.5378 52.5372 96.5378ZM52.5372 25.5378C71.8671 25.5378 87.5372 41.2078 87.5372 60.5378C87.5372 79.8677 71.8671 95.5378 52.5372 95.5378C33.2072 95.5378 17.5372 79.8677 17.5372 60.5378C17.5372 41.2078 33.2072 25.5378 52.5372 25.5378Z">
</path>
<path fill-rule="evenodd"  fill="url(#linear_border_MTb_XBGzvVunzVMRMT9Ip_1)" style="mix-blend-mode:normal" d="M52.5372 96.5378C72.4194 96.5378 88.5372 80.42 88.5372 60.5378C88.5372 40.6555 72.4194 24.5378 52.5372 24.5378C32.6549 24.5378 16.5372 40.6555 16.5372 60.5378C16.5372 80.42 32.6549 96.5378 52.5372 96.5378ZM52.5372 25.5378C71.8671 25.5378 87.5372 41.2078 87.5372 60.5378C87.5372 79.8677 71.8671 95.5378 52.5372 95.5378C33.2072 95.5378 17.5372 79.8677 17.5372 60.5378C17.5372 41.2078 33.2072 25.5378 52.5372 25.5378Z">
</path>
<defs>
<filter id="filter_fouGCLcJhUrhxLzE7d_Ua" x="0" y="0" width="64.470703125" height="64.470703125" filterUnits="userSpaceOnUse" color-interpolation-filters="sRGB">
<feGaussianBlur result="gaussian_blur_fouGCLcJhUrhxLzE7d_Ua" stdDeviation="7.5"/>
</filter>
<filter id="filter_LGxmRhZpoj6TAVFhXEmOV" x="63.703125" y="61.70355224609375" width="39.537353515625" height="39.537445068359375" filterUnits="userSpaceOnUse" color-interpolation-filters="sRGB">
<feGaussianBlur result="gaussian_blur_LGxmRhZpoj6TAVFhXEmOV" stdDeviation="5"/>
</filter>
<linearGradient id="linear_border_msGd8wFmMVpAvDOF0HBpn_0" x1="26.037172304259354" y1="36.03778093390994" x2="78.03717092672983" y2="88.03777955638041" gradientUnits="userSpaceOnUse">
<stop offset="0" stop-color="#62B6FC"  />
<stop offset="0.5989832878112793" stop-color="#62B6FC" stop-opacity="0" />
<stop offset="0.651858389377594" stop-color="#4D78A2" stop-opacity="0" />
<stop offset="1" stop-color="#4D78A2"  />
</linearGradient>
<linearGradient id="linear_border_msGd8wFmMVpAvDOF0HBpn_1" x1="26.037172304259354" y1="36.03778093390994" x2="78.03717092672983" y2="88.03777955638041" gradientUnits="userSpaceOnUse">
<stop offset="0" stop-color="#FFFFFF"  />
<stop offset="0.11100113391876221" stop-color="#FFFFFF" stop-opacity="0" />
<stop offset="0.923195481300354" stop-color="#FFFFFF" stop-opacity="0" />
<stop offset="0.9629504084587097" stop-color="#FFFFFF"  />
</linearGradient>
<mask id="mask-adz44OpSkbvq-5bnkC0Ph" style="mask-type:alpha" maskUnits="userSpaceOnUse">
<circle cx="52.53717041015625" cy="60.53778076171875" r="36"  style="mix-blend-mode:normal" fill="#774C70" >
</circle>
</mask>
<filter id="filter_mNlfUZGJnUclczhe7e_C0" x="11.53717041015625" y="19.53778076171875" width="73.99993896484375" height="74" filterUnits="userSpaceOnUse" color-interpolation-filters="sRGB">
<feGaussianBlur result="gaussian_blur_mNlfUZGJnUclczhe7e_C0" stdDeviation="3.5"/>
</filter>
<filter id="filter_1KeKeYdKQxVTAnYhNC4WN" x="42.2626953125" y="48.08197021484375" width="69.4732666015625" height="69.97250366210938" filterUnits="userSpaceOnUse" color-interpolation-filters="sRGB">
<feGaussianBlur result="gaussian_blur_1KeKeYdKQxVTAnYhNC4WN" stdDeviation="8"/>
</filter>
<filter id="filter_V1tV1MKx-9Cr3WR2BMZOw" x="61.7086181640625" y="66.67507934570312" width="33.2991943359375" height="33.57286071777344" filterUnits="userSpaceOnUse" color-interpolation-filters="sRGB">
<feGaussianBlur result="gaussian_blur_V1tV1MKx-9Cr3WR2BMZOw" stdDeviation="3.5"/>
</filter>
<filter id="filter_vvaQ9Fz2yHdGZ_WZlrp3M" x="63.3162841796875" y="68.28768920898438" width="31.946044921875" height="32.297698974609375" filterUnits="userSpaceOnUse" color-interpolation-filters="sRGB">
<feGaussianBlur result="gaussian_blur_vvaQ9Fz2yHdGZ_WZlrp3M" stdDeviation="3.5"/>
</filter>
<linearGradient id="linear_fill_bIqqAlVW1p_0gACcIhLhG" x1="26.5367431640625" y1="37.5367431640625" x2="43.5361328125" y2="63.53466796875" gradientUnits="userSpaceOnUse">
<stop offset="0" stop-color="#4980C1"  />
<stop offset="1" stop-color="#4980C1" stop-opacity="0" />
</linearGradient>
<filter id="filter_bIqqAlVW1p_0gACcIhLhG" x="9.53717041015625" y="17.53778076171875" width="50.23126220703125" height="50.842926025390625" filterUnits="userSpaceOnUse" color-interpolation-filters="sRGB">
<feGaussianBlur result="gaussian_blur_bIqqAlVW1p_0gACcIhLhG" stdDeviation="3.5"/>
</filter>
<linearGradient id="linear_fill_Gp8_bCqsCxkds49jB24Tm" x1="25.63671875" y1="38.278289794921875" x2="32.921630859375" y2="44.833648681640625" gradientUnits="userSpaceOnUse">
<stop offset="0" stop-color="#DCECFF"  />
<stop offset="1" stop-color="#DCECFF" stop-opacity="0" />
</linearGradient>
<filter id="filter_Gp8_bCqsCxkds49jB24Tm" x="16.53717041015625" y="25.53778076171875" width="24.00006103515625" height="25" filterUnits="userSpaceOnUse" color-interpolation-filters="sRGB">
<feGaussianBlur result="gaussian_blur_Gp8_bCqsCxkds49jB24Tm" stdDeviation="2"/>
</filter>
<linearGradient id="linear_fill_vKGa459oSf9wqCCYIYZKi" x1="24.7308349609375" y1="38.388763427734375" x2="29.29296875" y2="42.77703857421875" gradientUnits="userSpaceOnUse">
<stop offset="0" stop-color="#DFECFF"  />
<stop offset="1" stop-color="#DFECFF" stop-opacity="0" />
</linearGradient>
<filter id="filter_vKGa459oSf9wqCCYIYZKi" x="18.5372314453125" y="29.53778076171875" width="16.0206298828125" height="17.377471923828125" filterUnits="userSpaceOnUse" color-interpolation-filters="sRGB">
<feGaussianBlur result="gaussian_blur_vKGa459oSf9wqCCYIYZKi" stdDeviation="1.5"/>
</filter>
<linearGradient id="linear_border_MTb_XBGzvVunzVMRMT9Ip_0" x1="26.037172304259354" y1="36.03778093390994" x2="78.03717092672983" y2="88.03777955638041" gradientUnits="userSpaceOnUse">
<stop offset="0" stop-color="#70C2FE"  />
<stop offset="0.5989832878112793" stop-color="#70C2FE" stop-opacity="0" />
<stop offset="0.651858389377594" stop-color="#4D78A2" stop-opacity="0" />
<stop offset="1" stop-color="#4D78A2"  />
</linearGradient>
<linearGradient id="linear_border_MTb_XBGzvVunzVMRMT9Ip_1" x1="26.037172304259354" y1="36.03778093390994" x2="78.03717092672983" y2="88.03777955638041" gradientUnits="userSpaceOnUse">
<stop offset="0" stop-color="#FFFFFF"  />
<stop offset="0.11100113391876221" stop-color="#FFFFFF" stop-opacity="0" />
<stop offset="0.923195481300354" stop-color="#FFFFFF" stop-opacity="0" />
<stop offset="0.9629504084587097" stop-color="#FFFFFF"  />
</linearGradient>
</defs>
</svg>
