<svg xmlns="http://www.w3.org/2000/svg" xmlns:xlink="http://www.w3.org/1999/xlink" width="103.240478515625" height="101.24099731445312" viewBox="0 0 103.240478515625 101.24099731445312" fill="none">
<g opacity="0.7">
<g filter="url(#filter_vsuRfcSW7O5Q1rQNt-Eis)">
<ellipse cx="50.82624435424805" cy="33.72278076171875" transform="rotate(45 43.32624435424805 10.53778076171875)" rx="7.5" ry="23.185"  style="mix-blend-mode:normal" fill="#C95D45" >
</ellipse>
</g>
</g>
<g opacity="0.7">
<g filter="url(#filter_hW5K82Add0jNsIu6Yk8hX)">
<ellipse cx="94.03131866455078" cy="80.97918701171875" transform="rotate(45 88.15631866455078 68.47918701171875)" rx="5.875" ry="12.5"  style="mix-blend-mode:normal" fill="#4E1E0F" >
</ellipse>
</g>
</g>
<circle  cx="52.53718185424805" cy="60.53778076171875" r="36"   style="mix-blend-mode:normal" fill="#41597F" fill-opacity="0.18">
</circle>
<path fill-rule="evenodd"  fill="url(#linear_border_n_P16UbJHmPLN64J2-0qO_0)" style="mix-blend-mode:normal" d="M52.5372 96.5378C72.4194 96.5378 88.5372 80.42 88.5372 60.5378C88.5372 40.6555 72.4194 24.5378 52.5372 24.5378C32.6549 24.5378 16.5372 40.6555 16.5372 60.5378C16.5372 80.42 32.6549 96.5378 52.5372 96.5378ZM52.5372 25.5378C71.8671 25.5378 87.5372 41.2078 87.5372 60.5378C87.5372 79.8677 71.8671 95.5378 52.5372 95.5378C33.2072 95.5378 17.5372 79.8677 17.5372 60.5378C17.5372 41.2078 33.2072 25.5378 52.5372 25.5378Z">
</path>
<path fill-rule="evenodd"  fill="url(#linear_border_n_P16UbJHmPLN64J2-0qO_1)" style="mix-blend-mode:normal" d="M52.5372 96.5378C72.4194 96.5378 88.5372 80.42 88.5372 60.5378C88.5372 40.6555 72.4194 24.5378 52.5372 24.5378C32.6549 24.5378 16.5372 40.6555 16.5372 60.5378C16.5372 80.42 32.6549 96.5378 52.5372 96.5378ZM52.5372 25.5378C71.8671 25.5378 87.5372 41.2078 87.5372 60.5378C87.5372 79.8677 71.8671 95.5378 52.5372 95.5378C33.2072 95.5378 17.5372 79.8677 17.5372 60.5378C17.5372 41.2078 33.2072 25.5378 52.5372 25.5378Z">
</path>
<g mask="url(#mask-Cch0d39m3JuMvHHhf6R7R)" opacity="0.48">
<g filter="url(#filter_mX5-Wi1M_Bx7NzpmY9Ouw)">
<circle cx="48.53718185424805" cy="56.53778076171875" r="30"  style="mix-blend-mode:normal" fill="#7A3C22" fill-opacity="0.24">
</circle>
</g>
</g>
<g mask="url(#mask-Cch0d39m3JuMvHHhf6R7R)" opacity="0.3">
<g filter="url(#filter_YizaUFLEUkhOUi7skOQ0I)">
<ellipse cx="97.10141128540039" cy="81.73100540161133" transform="rotate(44.38477474590305 85.41141128540039 57.76100540161133)" rx="11.69" ry="23.97"  style="mix-blend-mode:normal" fill="#497DB1" >
</ellipse>
</g>
</g>
<g mask="url(#mask-Cch0d39m3JuMvHHhf6R7R)" opacity="0.7">
<g filter="url(#filter_ScoU5pB35_6pkmcgoZ9Py)">
<ellipse cx="88.72948654174805" cy="83.03778076171875" transform="rotate(44.38477474590305 83.02448654174805 70.53778076171875)" rx="5.705" ry="12.5"  style="mix-blend-mode:normal" fill="#0A3764" >
</ellipse>
</g>
</g>
<g mask="url(#mask-Cch0d39m3JuMvHHhf6R7R)">
<g filter="url(#filter_zYZBpPiIisGFMVd6nDe4a)">
<ellipse cx="88.83448654174805" cy="86.03778076171875" transform="rotate(44.38477474590305 86.02448654174805 73.53778076171875)" rx="2.81" ry="12.5"  style="mix-blend-mode:normal" fill="#C95545" >
</ellipse>
</g>
</g>
<g opacity="0.6">
<g filter="url(#filter_emLy3XntaxlIiXN7C-qGV)">
<path d="M16.5372 60.5378C16.5372 40.6555 32.6549 24.5378 52.5372 24.5378C54.0372 39.0378 48.9372 66.5378 16.5372 60.5378Z"  style="mix-blend-mode:normal" fill="url(#linear_fill_emLy3XntaxlIiXN7C-qGV)" >
</path>
</g>
</g>
<g opacity="0.6">
<g filter="url(#filter_cXJ9EiV5vORB5NJwSB2SR)">
<path d="M20.5372 46.1119C24.1605 39.6117 29.1265 33.962 35.0602 29.5378C37.7627 36.2765 38.6415 49.0254 20.5372 46.1119Z"  style="mix-blend-mode:normal" fill="url(#linear_fill_cXJ9EiV5vORB5NJwSB2SR)" fill-opacity="0.9599999785423279">
</path>
</g>
</g>
<g filter="url(#filter_NlwNPQRUdr9wAWgaiKUfS)">
<path d="M21.5372 43.9153C24.024 39.4531 27.4324 35.5748 31.5049 32.5378C32.0372 38.0378 28.5372 43.9153 21.5372 43.9153Z"  style="mix-blend-mode:normal" fill="url(#linear_fill_NlwNPQRUdr9wAWgaiKUfS)" >
</path>
</g>
<path fill-rule="evenodd"  fill="url(#linear_border_HRxV8Alx4PMrPWrZ6v1hK_0)" style="mix-blend-mode:normal" d="M52.5372 96.5378C72.4194 96.5378 88.5372 80.42 88.5372 60.5378C88.5372 40.6555 72.4194 24.5378 52.5372 24.5378C32.6549 24.5378 16.5372 40.6555 16.5372 60.5378C16.5372 80.42 32.6549 96.5378 52.5372 96.5378ZM52.5372 25.5378C71.8671 25.5378 87.5372 41.2078 87.5372 60.5378C87.5372 79.8677 71.8671 95.5378 52.5372 95.5378C33.2072 95.5378 17.5372 79.8677 17.5372 60.5378C17.5372 41.2078 33.2072 25.5378 52.5372 25.5378Z">
</path>
<path fill-rule="evenodd"  fill="url(#linear_border_HRxV8Alx4PMrPWrZ6v1hK_1)" style="mix-blend-mode:normal" d="M52.5372 96.5378C72.4194 96.5378 88.5372 80.42 88.5372 60.5378C88.5372 40.6555 72.4194 24.5378 52.5372 24.5378C32.6549 24.5378 16.5372 40.6555 16.5372 60.5378C16.5372 80.42 32.6549 96.5378 52.5372 96.5378ZM52.5372 25.5378C71.8671 25.5378 87.5372 41.2078 87.5372 60.5378C87.5372 79.8677 71.8671 95.5378 52.5372 95.5378C33.2072 95.5378 17.5372 79.8677 17.5372 60.5378C17.5372 41.2078 33.2072 25.5378 52.5372 25.5378Z">
</path>
<defs>
<filter id="filter_vsuRfcSW7O5Q1rQNt-Eis" x="0" y="0" width="64.470703125" height="64.470703125" filterUnits="userSpaceOnUse" color-interpolation-filters="sRGB">
<feGaussianBlur result="gaussian_blur_vsuRfcSW7O5Q1rQNt-Eis" stdDeviation="7.5"/>
</filter>
<filter id="filter_hW5K82Add0jNsIu6Yk8hX" x="63.703125" y="61.70355224609375" width="39.537353515625" height="39.537445068359375" filterUnits="userSpaceOnUse" color-interpolation-filters="sRGB">
<feGaussianBlur result="gaussian_blur_hW5K82Add0jNsIu6Yk8hX" stdDeviation="5"/>
</filter>
<linearGradient id="linear_border_n_P16UbJHmPLN64J2-0qO_0" x1="26.03718374835115" y1="36.03778093390994" x2="78.03718237082163" y2="88.03777955638041" gradientUnits="userSpaceOnUse">
<stop offset="0" stop-color="#62B6FC"  />
<stop offset="0.5989832878112793" stop-color="#62B6FC" stop-opacity="0" />
<stop offset="0.651858389377594" stop-color="#4D78A2" stop-opacity="0" />
<stop offset="1" stop-color="#4D78A2"  />
</linearGradient>
<linearGradient id="linear_border_n_P16UbJHmPLN64J2-0qO_1" x1="26.03718374835115" y1="36.03778093390994" x2="78.03718237082163" y2="88.03777955638041" gradientUnits="userSpaceOnUse">
<stop offset="0" stop-color="#FFFFFF"  />
<stop offset="0.11100113391876221" stop-color="#FFFFFF" stop-opacity="0" />
<stop offset="0.923195481300354" stop-color="#FFFFFF" stop-opacity="0" />
<stop offset="0.9629504084587097" stop-color="#FFFFFF"  />
</linearGradient>
<mask id="mask-Cch0d39m3JuMvHHhf6R7R" style="mask-type:alpha" maskUnits="userSpaceOnUse">
<circle cx="52.53718185424805" cy="60.53778076171875" r="36"  style="mix-blend-mode:normal" fill="#775C4C" >
</circle>
</mask>
<filter id="filter_mX5-Wi1M_Bx7NzpmY9Ouw" x="11.5372314453125" y="19.53778076171875" width="74" height="74" filterUnits="userSpaceOnUse" color-interpolation-filters="sRGB">
<feGaussianBlur result="gaussian_blur_mX5-Wi1M_Bx7NzpmY9Ouw" stdDeviation="3.5"/>
</filter>
<filter id="filter_YizaUFLEUkhOUi7skOQ0I" x="42.2626953125" y="48.08197021484375" width="69.4732666015625" height="69.97250366210938" filterUnits="userSpaceOnUse" color-interpolation-filters="sRGB">
<feGaussianBlur result="gaussian_blur_YizaUFLEUkhOUi7skOQ0I" stdDeviation="8"/>
</filter>
<filter id="filter_ScoU5pB35_6pkmcgoZ9Py" x="61.7086181640625" y="66.67507934570312" width="33.2991943359375" height="33.57286071777344" filterUnits="userSpaceOnUse" color-interpolation-filters="sRGB">
<feGaussianBlur result="gaussian_blur_ScoU5pB35_6pkmcgoZ9Py" stdDeviation="3.5"/>
</filter>
<filter id="filter_zYZBpPiIisGFMVd6nDe4a" x="63.3162841796875" y="68.28767395019531" width="31.946044921875" height="32.29771423339844" filterUnits="userSpaceOnUse" color-interpolation-filters="sRGB">
<feGaussianBlur result="gaussian_blur_zYZBpPiIisGFMVd6nDe4a" stdDeviation="3.5"/>
</filter>
<linearGradient id="linear_fill_emLy3XntaxlIiXN7C-qGV" x1="26.536865234375" y1="37.5367431640625" x2="43.5362548828125" y2="63.53466796875" gradientUnits="userSpaceOnUse">
<stop offset="0" stop-color="#DC6734" stop-opacity="0.69" />
<stop offset="0.9635416865348816" stop-color="#EE723C" stop-opacity="0.03" />
</linearGradient>
<filter id="filter_emLy3XntaxlIiXN7C-qGV" x="9.5372314453125" y="17.53778076171875" width="50.2313232421875" height="50.842926025390625" filterUnits="userSpaceOnUse" color-interpolation-filters="sRGB">
<feGaussianBlur result="gaussian_blur_emLy3XntaxlIiXN7C-qGV" stdDeviation="3.5"/>
</filter>
<linearGradient id="linear_fill_cXJ9EiV5vORB5NJwSB2SR" x1="25.63671875" y1="38.278289794921875" x2="32.9217529296875" y2="44.833648681640625" gradientUnits="userSpaceOnUse">
<stop offset="0" stop-color="#DCECFF"  />
<stop offset="1" stop-color="#DCECFF" stop-opacity="0" />
</linearGradient>
<filter id="filter_cXJ9EiV5vORB5NJwSB2SR" x="16.5372314453125" y="25.53778076171875" width="24" height="25" filterUnits="userSpaceOnUse" color-interpolation-filters="sRGB">
<feGaussianBlur result="gaussian_blur_cXJ9EiV5vORB5NJwSB2SR" stdDeviation="2"/>
</filter>
<linearGradient id="linear_fill_NlwNPQRUdr9wAWgaiKUfS" x1="24.7308349609375" y1="38.388763427734375" x2="29.29296875" y2="42.77703857421875" gradientUnits="userSpaceOnUse">
<stop offset="0" stop-color="#DFECFF"  />
<stop offset="1" stop-color="#DFECFF" stop-opacity="0" />
</linearGradient>
<filter id="filter_NlwNPQRUdr9wAWgaiKUfS" x="18.5372314453125" y="29.53778076171875" width="16.0206298828125" height="17.377471923828125" filterUnits="userSpaceOnUse" color-interpolation-filters="sRGB">
<feGaussianBlur result="gaussian_blur_NlwNPQRUdr9wAWgaiKUfS" stdDeviation="1.5"/>
</filter>
<linearGradient id="linear_border_HRxV8Alx4PMrPWrZ6v1hK_0" x1="26.03718374835115" y1="36.03778093390994" x2="78.03718237082163" y2="88.03777955638041" gradientUnits="userSpaceOnUse">
<stop offset="0" stop-color="#FE8A70"  />
<stop offset="0.5989832878112793" stop-color="#FEB470" stop-opacity="0" />
<stop offset="0.651858389377594" stop-color="#A26C4D" stop-opacity="0" />
<stop offset="1" stop-color="#B53E23"  />
</linearGradient>
<linearGradient id="linear_border_HRxV8Alx4PMrPWrZ6v1hK_1" x1="26.03718374835115" y1="36.03778093390994" x2="78.03718237082163" y2="88.03777955638041" gradientUnits="userSpaceOnUse">
<stop offset="0" stop-color="#FFFFFF"  />
<stop offset="0.11100113391876221" stop-color="#FFFFFF" stop-opacity="0" />
<stop offset="0.923195481300354" stop-color="#FFFFFF" stop-opacity="0" />
<stop offset="0.9629504084587097" stop-color="#FFFFFF"  />
</linearGradient>
</defs>
</svg>
